# xmcd
#
# Track frame offsets:
#	150
#	11470
#	23977
#	36800
#	50272
#	67042
#	78534
#	97071
#	111202
#	121918
#	136267
#
# Disc length: 1993 seconds
#
# Revision: 0
# Processed by: cddbd v1.5.1PL0 Copyright (c) Steve Scherf et al.
# Submitted via: EasyCDDAExtractor 8.2.3.1
#
DISCID=8e07c70b
DTITLE=Various Artist - HILLCREST 22
DYEAR=2005
DGENRE=Country
TTITLE0=Arly Karlsen - Walking The Floor Over Me
TTITLE1=Nancy Hays - Come Dance With Me
TTITLE2=Roy Rivers and Dolly Parton - Thank God Im A Country Boy
TTITLE3=Lucie Diamond - That's What I Like About You
TTITLE4=Marty Lamar - Keep It
TTITLE5=Rhonda Grant - I Like You
TTITLE6=Danny Mack - The Nullarbor Song
TTITLE7=Slow Horses - I Can't Look At That
TTITLE8=Ann Pascoe - Love Is Where You Leave Your Heart
TTITLE9=Jimmy Raschel - Glory Bound
TTITLE10=Debbie Bergeron - It All In My Heart
EXTD=
EXTT0=
EXTT1=
EXTT2=
EXTT3=
EXTT4=
EXTT5=
EXTT6=
EXTT7=
EXTT8=
EXTT9=
EXTT10=
PLAYORDER=
